<svg width="25" height="20" viewBox="0 0 25 20" fill="none" xmlns="http://www.w3.org/2000/svg">
<path d="M3.08756 19.565C2.42996 19.565 1.86702 19.3309 1.39873 18.8626C0.930435 18.3943 0.696289 17.8313 0.696289 17.1737V2.82609C0.696289 2.16849 0.930435 1.60554 1.39873 1.13725C1.86702 0.66896 2.42996 0.434814 3.08756 0.434814H22.2178C22.8754 0.434814 23.4383 0.66896 23.9066 1.13725C24.3749 1.60554 24.609 2.16849 24.609 2.82609V17.1737C24.609 17.8313 24.3749 18.3943 23.9066 18.8626C23.4383 19.3309 22.8754 19.565 22.2178 19.565H3.08756ZM12.6527 11.1956L3.08756 5.21737V17.1737H22.2178V5.21737L12.6527 11.1956ZM12.6527 8.80428L22.2178 2.82609H3.08756L12.6527 8.80428ZM3.08756 5.21737V2.82609V17.1737V5.21737Z" fill="#863B1F"/>
</svg>
