<svg width="29" height="30" viewBox="0 0 29 30" fill="none" xmlns="http://www.w3.org/2000/svg">
<path d="M5.08756 24.565C4.42996 24.565 3.86702 24.3309 3.39873 23.8626C2.93043 23.3943 2.69629 22.8313 2.69629 22.1737V7.82609C2.69629 7.16849 2.93043 6.60554 3.39873 6.13725C3.86702 5.66896 4.42996 5.43481 5.08756 5.43481H24.2178C24.8754 5.43481 25.4383 5.66896 25.9066 6.13725C26.3749 6.60554 26.609 7.16849 26.609 7.82609V22.1737C26.609 22.8313 26.3749 23.3943 25.9066 23.8626C25.4383 24.3309 24.8754 24.565 24.2178 24.565H5.08756ZM14.6527 16.1956L5.08756 10.2174V22.1737H24.2178V10.2174L14.6527 16.1956ZM14.6527 13.8043L24.2178 7.82609H5.08756L14.6527 13.8043ZM5.08756 10.2174V7.82609V22.1737V10.2174Z" fill="#683315"/>
</svg>
