<svg width="27" height="24" viewBox="0 0 27 24" fill="none" xmlns="http://www.w3.org/2000/svg">
<path d="M13.4533 6.25222C9.82047 6.25222 6.89022 8.81619 6.89022 11.9949C6.89022 15.1737 9.82047 17.7376 13.4533 17.7376C17.0861 17.7376 20.0164 15.1737 20.0164 11.9949C20.0164 8.81619 17.0861 6.25222 13.4533 6.25222ZM13.4533 15.7284C11.1057 15.7284 9.18644 14.0541 9.18644 11.9949C9.18644 9.93575 11.1 8.26142 13.4533 8.26142C15.8066 8.26142 17.7202 9.93575 17.7202 11.9949C17.7202 14.0541 15.8009 15.7284 13.4533 15.7284ZM21.8157 6.01731C21.8157 6.76202 21.1302 7.35678 20.2848 7.35678C19.4338 7.35678 18.754 6.75702 18.754 6.01731C18.754 5.27761 19.4395 4.67785 20.2848 4.67785C21.1302 4.67785 21.8157 5.27761 21.8157 6.01731ZM26.1625 7.37677C26.0654 5.58249 25.597 3.99312 24.0947 2.68365C22.5982 1.37417 20.7818 0.964337 18.7312 0.874373C16.6177 0.769415 10.2831 0.769415 8.1697 0.874373C6.12481 0.959339 4.3084 1.36917 2.80614 2.67865C1.30389 3.98813 0.841217 5.57749 0.738401 7.37177C0.61845 9.22103 0.61845 14.7638 0.738401 16.6131C0.835505 18.4074 1.30389 19.9967 2.80614 21.3062C4.3084 22.6157 6.1191 23.0255 8.1697 23.1155C10.2831 23.2204 16.6177 23.2204 18.7312 23.1155C20.7818 23.0305 22.5982 22.6207 24.0947 21.3062C25.5913 19.9967 26.0597 18.4074 26.1625 16.6131C26.2824 14.7638 26.2824 9.22603 26.1625 7.37677ZM23.4321 18.5973C22.9866 19.5769 22.1241 20.3316 20.9988 20.7264C19.3138 21.3112 15.3154 21.1762 13.4533 21.1762C11.5912 21.1762 7.58708 21.3062 5.90775 20.7264C4.7882 20.3366 3.92569 19.5819 3.47445 18.5973C2.80614 17.1229 2.96037 13.6243 2.96037 11.9949C2.96037 10.3656 2.81185 6.86198 3.47445 5.39256C3.91998 4.41296 4.78249 3.65826 5.90775 3.26342C7.59279 2.67865 11.5912 2.8136 13.4533 2.8136C15.3154 2.8136 19.3195 2.68365 20.9988 3.26342C22.1184 3.65326 22.9809 4.40796 23.4321 5.39256C24.1004 6.86697 23.9462 10.3656 23.9462 11.9949C23.9462 13.6243 24.1004 17.1279 23.4321 18.5973Z" fill="#863B1F"/>
</svg>
