<svg width="27" height="26" viewBox="0 0 27 26" fill="none" xmlns="http://www.w3.org/2000/svg">
<g clip-path="url(#clip0_101_315)">
<rect width="25.5898" height="25.5898" transform="translate(0.652344 0.205078)" fill="#E5D5BC"/>
<path d="M13.4533 7.25222C9.82047 7.25222 6.89022 9.81619 6.89022 12.9949C6.89022 16.1737 9.82047 18.7376 13.4533 18.7376C17.0861 18.7376 20.0164 16.1737 20.0164 12.9949C20.0164 9.81619 17.0861 7.25222 13.4533 7.25222ZM13.4533 16.7284C11.1057 16.7284 9.18644 15.0541 9.18644 12.9949C9.18644 10.9357 11.1 9.26142 13.4533 9.26142C15.8066 9.26142 17.7202 10.9357 17.7202 12.9949C17.7202 15.0541 15.8009 16.7284 13.4533 16.7284ZM21.8157 7.01731C21.8157 7.76202 21.1302 8.35678 20.2848 8.35678C19.4338 8.35678 18.754 7.75702 18.754 7.01731C18.754 6.27761 19.4395 5.67785 20.2848 5.67785C21.1302 5.67785 21.8157 6.27761 21.8157 7.01731ZM26.1625 8.37677C26.0654 6.58249 25.597 4.99312 24.0947 3.68365C22.5982 2.37417 20.7818 1.96434 18.7312 1.87437C16.6177 1.76941 10.2831 1.76941 8.1697 1.87437C6.12481 1.95934 4.3084 2.36917 2.80614 3.67865C1.30389 4.98813 0.841217 6.57749 0.738401 8.37177C0.61845 10.221 0.61845 15.7638 0.738401 17.6131C0.835505 19.4074 1.30389 20.9967 2.80614 22.3062C4.3084 23.6157 6.1191 24.0255 8.1697 24.1155C10.2831 24.2204 16.6177 24.2204 18.7312 24.1155C20.7818 24.0305 22.5982 23.6207 24.0947 22.3062C25.5913 20.9967 26.0597 19.4074 26.1625 17.6131C26.2824 15.7638 26.2824 10.226 26.1625 8.37677ZM23.4321 19.5973C22.9866 20.5769 22.1241 21.3316 20.9988 21.7264C19.3138 22.3112 15.3154 22.1762 13.4533 22.1762C11.5912 22.1762 7.58708 22.3062 5.90775 21.7264C4.7882 21.3366 3.92569 20.5819 3.47445 19.5973C2.80614 18.1229 2.96037 14.6243 2.96037 12.9949C2.96037 11.3656 2.81185 7.86198 3.47445 6.39256C3.91998 5.41296 4.78249 4.65826 5.90775 4.26342C7.59279 3.67865 11.5912 3.8136 13.4533 3.8136C15.3154 3.8136 19.3195 3.68365 20.9988 4.26342C22.1184 4.65326 22.9809 5.40796 23.4321 6.39256C24.1004 7.86697 23.9462 11.3656 23.9462 12.9949C23.9462 14.6243 24.1004 18.1279 23.4321 19.5973Z" fill="#683315"/>
</g>
<defs>
<clipPath id="clip0_101_315">
<rect width="25.5898" height="25.5898" fill="white" transform="translate(0.652344 0.205078)"/>
</clipPath>
</defs>
</svg>
