<svg width="440" height="127" viewBox="0 0 440 127" fill="none" xmlns="http://www.w3.org/2000/svg">
<path d="M147.614 52.7474C149.97 52.7474 151.69 53.223 152.775 54.1732C153.862 55.1243 154.405 56.4854 154.405 58.2584C154.405 59.0562 154.277 59.8153 154.022 60.5337C153.77 61.253 153.359 61.8856 152.793 62.4323C152.228 62.9771 151.486 63.4065 150.566 63.7213C149.646 64.0344 148.52 64.1904 147.188 64.1904H144.965V71.611H142.846V52.7474H147.614ZM147.414 54.6201H144.965V62.3067H146.953C148.118 62.3067 149.088 62.1792 149.866 61.9225C150.645 61.664 151.229 61.2447 151.621 60.663C152.014 60.0822 152.21 59.3102 152.21 58.3471C152.21 57.0912 151.822 56.1567 151.049 55.5436C150.274 54.9286 149.062 54.6201 147.414 54.6201Z" fill="#863B1F"/>
<path d="M168.388 71.611H158.227V52.7474H168.388V54.6829H160.346V60.7849H167.927V62.6945H160.346V69.6755H168.388V71.611Z" fill="#863B1F"/>
<path d="M186.703 71.611H184.258L174.307 55.7652H174.207C174.231 56.189 174.259 56.6692 174.293 57.2057C174.326 57.7431 174.354 58.3156 174.375 58.9233C174.397 59.529 174.408 60.1459 174.408 60.7738V71.611H172.435V52.7474H174.869L184.78 68.5416H184.869C184.852 68.2387 184.831 67.8102 184.805 67.2562C184.781 66.7021 184.759 66.1056 184.737 65.4647C184.716 64.822 184.705 64.2264 184.705 63.677V52.7474H186.703V71.611Z" fill="#863B1F"/>
<path d="M205.953 71.611H203.508L193.557 55.7652H193.457C193.481 56.189 193.509 56.6692 193.543 57.2057C193.576 57.7431 193.604 58.3156 193.625 58.9233C193.647 59.529 193.658 60.1459 193.658 60.7738V71.611H191.685V52.7474H194.119L204.03 68.5416H204.119C204.102 68.2387 204.081 67.8102 204.055 67.2562C204.031 66.7021 204.009 66.1056 203.987 65.4647C203.966 64.822 203.955 64.2264 203.955 63.677V52.7474H205.953V71.611Z" fill="#863B1F"/>
<path d="M210.936 71.611V52.7474H213.055V71.611H210.936Z" fill="#863B1F"/>
<path d="M232.347 71.611H229.902L219.951 55.7652H219.851C219.874 56.189 219.903 56.6692 219.937 57.2057C219.97 57.7431 219.998 58.3157 220.019 58.9233C220.04 59.529 220.051 60.1459 220.051 60.7738V71.611H218.078V52.7474H220.512L230.424 68.5416H230.513C230.496 68.2387 230.475 67.8102 230.449 67.2562C230.425 66.7021 230.402 66.1056 230.381 65.4648C230.359 64.8221 230.349 64.2265 230.349 63.677V52.7474H232.347V71.611Z" fill="#863B1F"/>
<path d="M251.596 71.611H249.151L239.2 55.7652H239.1C239.123 56.189 239.152 56.6692 239.186 57.2057C239.219 57.7431 239.247 58.3157 239.268 58.9233C239.289 59.529 239.3 60.1459 239.3 60.7738V71.611H237.327V52.7474H239.761L249.673 68.5416H249.762C249.745 68.2387 249.724 67.8102 249.698 67.2562C249.674 66.7021 249.651 66.1056 249.63 65.4648C249.608 64.8221 249.598 64.2265 249.598 63.677V52.7474H251.596V71.611Z" fill="#863B1F"/>
<path d="M280.026 71.611H269.864V52.7474H280.026V54.6829H271.984V60.7849H279.565V62.6945H271.984V69.6755H280.026V71.611Z" fill="#863B1F"/>
<path d="M288.73 62.2032L293.584 52.7474H295.871L289.791 64.2939V71.611H287.668V64.3973L281.574 52.7474H283.897L288.73 62.2032Z" fill="#863B1F"/>
<path d="M306.393 71.611L300.263 54.9156H300.163C300.196 55.2684 300.225 55.6978 300.249 56.2047C300.275 56.7126 300.296 57.2648 300.313 57.8632C300.329 58.4616 300.338 59.0701 300.338 59.6879V71.611H298.365V52.7475H301.511L307.29 68.4382H307.38L313.245 52.7475H316.369V71.611H314.271V59.5327C314.271 58.9741 314.279 58.4136 314.296 57.8521C314.312 57.2888 314.332 56.7551 314.356 56.2528C314.382 55.7486 314.407 55.3109 314.432 54.9415H314.331L308.127 71.611H306.393Z" fill="#863B1F"/>
<path d="M335.171 52.7475V64.955C335.171 66.2875 334.91 67.4741 334.388 68.5157C333.868 69.5555 333.084 70.3737 332.036 70.972C330.987 71.5704 329.672 71.8696 328.09 71.8696C325.836 71.8696 324.119 71.238 322.94 69.9747C321.762 68.7097 321.174 67.0189 321.174 64.9033V52.7475H323.311V64.9661C323.311 66.5673 323.72 67.8019 324.541 68.6709C325.36 69.538 326.585 69.9711 328.215 69.9711C329.33 69.9711 330.244 69.7633 330.957 69.3468C331.669 68.9313 332.198 68.3458 332.544 67.5923C332.888 66.8388 333.062 65.969 333.062 64.9809V52.7475H335.171Z" fill="#863B1F"/>
<path d="M354.271 71.611H351.827L341.876 55.7652H341.776C341.799 56.189 341.828 56.6692 341.862 57.2057C341.895 57.7431 341.922 58.3157 341.944 58.9233C341.965 59.529 341.976 60.1459 341.976 60.7738V71.611H340.003V52.7474H342.437L352.348 68.5416H352.438C352.421 68.2387 352.399 67.8102 352.373 67.2562C352.349 66.7021 352.327 66.1056 352.306 65.4648C352.284 64.8221 352.273 64.2265 352.273 63.677V52.7474H354.271V71.611Z" fill="#863B1F"/>
<path d="M373.747 62.0001C373.747 64.123 373.371 65.8969 372.621 67.3227C371.872 68.7466 370.788 69.8177 369.368 70.5362C367.95 71.2527 366.23 71.611 364.207 71.611H359.253V52.7474H364.757C366.613 52.7474 368.211 53.0983 369.55 53.8001C370.892 54.5001 371.925 55.5362 372.653 56.9102C373.382 58.2824 373.747 59.9787 373.747 62.0001ZM371.513 62.0777C371.513 60.3813 371.239 58.9824 370.694 57.8816C370.148 56.7809 369.348 55.9628 368.296 55.4253C367.245 54.8888 365.956 54.6201 364.432 54.6201H361.372V69.7272H363.96C366.471 69.7272 368.357 69.0873 369.618 67.8065C370.881 66.5239 371.513 64.6143 371.513 62.0777Z" fill="#863B1F"/>
<path d="M388.101 66.5914C388.101 67.7096 387.833 68.6626 387.297 69.4503C386.761 70.2389 386.009 70.8391 385.042 71.2528C384.077 71.6637 382.941 71.8696 381.635 71.8696C380.944 71.8696 380.29 71.8346 379.673 71.7662C379.058 71.697 378.492 71.5991 377.975 71.4707C377.461 71.3405 377.008 71.1808 376.617 70.9905V68.8888C377.241 69.1548 378.002 69.4023 378.901 69.6313C379.799 69.8584 380.739 69.9711 381.721 69.9711C382.638 69.9711 383.413 69.8446 384.045 69.5906C384.678 69.3376 385.16 68.9729 385.489 68.4973C385.817 68.0199 385.982 67.4446 385.982 66.7724C385.982 66.1278 385.843 65.5886 385.567 65.1545C385.293 64.7187 384.838 64.3225 384.202 63.9652C383.566 63.6087 382.698 63.2283 381.6 62.8238C380.825 62.5413 380.142 62.2292 379.552 61.8893C378.96 61.5495 378.465 61.1654 378.065 60.7369C377.664 60.3066 377.362 59.808 377.157 59.241C376.954 58.6722 376.853 58.0221 376.853 57.2907C376.853 56.2842 377.101 55.4217 377.597 54.7052C378.092 53.9867 378.778 53.4364 379.655 53.0541C380.535 52.6699 381.543 52.4779 382.683 52.4779C383.657 52.4779 384.557 52.573 385.385 52.7623C386.214 52.9497 386.974 53.2037 387.665 53.5232L387.004 55.4069C386.346 55.1216 385.649 54.8852 384.913 54.6978C384.177 54.5085 383.416 54.4134 382.633 54.4134C381.851 54.4134 381.192 54.5315 380.656 54.7679C380.12 55.0043 379.71 55.3386 379.427 55.7689C379.142 56.1974 379.001 56.709 379.001 57.3018C379.001 57.9648 379.135 58.5152 379.405 58.9529C379.677 59.3915 380.11 59.7803 380.706 60.1201C381.301 60.4599 382.09 60.8163 383.072 61.1875C384.145 61.592 385.054 62.0186 385.803 62.4692C386.554 62.9199 387.124 63.4702 387.515 64.1203C387.906 64.7704 388.101 65.5941 388.101 66.5914Z" fill="#863B1F"/>
<path d="M402.124 66.5914C402.124 67.7096 401.856 68.6626 401.32 69.4503C400.783 70.2389 400.031 70.8391 399.064 71.2528C398.099 71.6637 396.963 71.8696 395.658 71.8696C394.966 71.8696 394.312 71.8345 393.696 71.7662C393.081 71.6969 392.514 71.5991 391.998 71.4707C391.483 71.3405 391.03 71.1807 390.64 70.9905V68.8888C391.263 69.1548 392.025 69.4022 392.924 69.6313C393.822 69.8584 394.762 69.9711 395.744 69.9711C396.66 69.9711 397.435 69.8446 398.067 69.5906C398.701 69.3376 399.182 68.9729 399.511 68.4973C399.84 68.0199 400.004 67.4446 400.004 66.7724C400.004 66.1278 399.866 65.5885 399.59 65.1545C399.315 64.7187 398.86 64.3225 398.224 63.9652C397.588 63.6087 396.72 63.2283 395.622 62.8238C394.847 62.5413 394.165 62.2291 393.574 61.8893C392.983 61.5495 392.488 61.1654 392.087 60.7369C391.687 60.3066 391.384 59.8079 391.179 59.241C390.977 58.6721 390.876 58.022 390.876 57.2907C390.876 56.2842 391.123 55.4217 391.619 54.7051C392.114 53.9867 392.8 53.4364 393.678 53.0541C394.557 52.6699 395.566 52.4778 396.705 52.4778C397.679 52.4778 398.58 52.573 399.407 52.7623C400.237 52.9497 400.996 53.2037 401.688 53.5232L401.026 55.4069C400.369 55.1216 399.672 54.8852 398.936 54.6977C398.199 54.5084 397.439 54.4133 396.655 54.4133C395.873 54.4133 395.215 54.5315 394.679 54.7679C394.142 55.0043 393.732 55.3386 393.449 55.7689C393.165 56.1974 393.024 56.7089 393.024 57.3018C393.024 57.9648 393.158 58.5152 393.428 58.9529C393.699 59.3915 394.133 59.7802 394.729 60.1201C395.324 60.4599 396.113 60.8163 397.095 61.1875C398.167 61.592 399.077 62.0186 399.826 62.4692C400.576 62.9199 401.146 63.4702 401.538 64.1203C401.928 64.7704 402.124 65.5941 402.124 66.5914Z" fill="#863B1F"/>
<path d="M421.674 62.1551C421.674 63.6086 421.495 64.9309 421.138 66.1222C420.781 67.3115 420.249 68.3347 419.544 69.1916C418.841 70.0485 417.968 70.7097 416.927 71.1751C415.888 71.6377 414.683 71.8695 413.31 71.8695C411.895 71.8695 410.66 71.6377 409.607 71.1751C408.554 70.7097 407.679 70.0476 406.984 69.1879C406.29 68.3264 405.77 67.2986 405.425 66.1037C405.08 64.9069 404.907 63.5828 404.907 62.1293C404.907 60.2012 405.215 58.5113 405.829 57.0579C406.446 55.6026 407.381 54.4714 408.632 53.6634C409.884 52.8563 411.456 52.4519 413.346 52.4519C415.152 52.4519 416.674 52.8526 417.91 53.6523C419.147 54.4502 420.084 55.5749 420.72 57.0246C421.356 58.4753 421.674 60.1855 421.674 62.1551ZM407.141 62.1551C407.141 63.7536 407.361 65.1378 407.802 66.3068C408.243 67.4768 408.918 68.3808 409.829 69.018C410.741 69.6533 411.902 69.971 413.31 69.971C414.723 69.971 415.881 69.6533 416.785 69.018C417.687 68.3808 418.355 67.4768 418.79 66.3068C419.223 65.1378 419.44 63.7536 419.44 62.1551C419.44 59.7201 418.947 57.8169 417.96 56.4447C416.974 55.0735 415.435 54.3874 413.346 54.3874C411.931 54.3874 410.765 54.7013 409.85 55.3292C408.935 55.9572 408.255 56.8501 407.81 58.0072C407.364 59.1624 407.141 60.5447 407.141 62.1551Z" fill="#863B1F"/>
<path d="M440 71.611H437.555L427.604 55.7652H427.504C427.528 56.189 427.556 56.6692 427.59 57.2057C427.623 57.7431 427.651 58.3156 427.672 58.9233C427.694 59.529 427.704 60.1459 427.704 60.7738V71.611H425.731V52.7474H428.166L438.077 68.5416H438.166C438.149 68.2387 438.128 67.8102 438.102 67.2562C438.078 66.7021 438.056 66.1056 438.034 65.4647C438.013 64.822 438.002 64.2264 438.002 63.677V52.7474H440V71.611Z" fill="#863B1F"/>
<mask id="mask0_53_671" style="mask-type:luminance" maskUnits="userSpaceOnUse" x="0" y="0" width="129" height="127">
<path d="M0 0.935411H128.136V126.584H0V0.935411Z" fill="white"/>
</mask>
<g mask="url(#mask0_53_671)">
<path d="M126.73 53.2554C126.258 51.8797 125.639 50.5737 124.887 49.3493C124.428 48.6069 123.929 47.8912 123.376 47.2107C123.024 46.7777 122.651 46.3575 122.258 45.9519L102.022 25.0324L78.7576 0.976652L78.7177 12.3167C78.6844 21.6006 78.9571 23.8363 80.2084 24.62C81.0599 25.1492 82.5373 26.0712 83.4952 26.6761C84.8795 27.5499 85.2587 28.5672 85.3052 31.6003C85.3385 33.7045 84.8529 35.9531 84.2343 36.5924C83.4619 37.3906 73.7198 37.7893 64.0376 37.7824C54.3546 37.7893 44.6125 37.3906 43.8409 36.5924C43.2148 35.9463 42.7359 33.6977 42.7691 31.6003C42.8157 28.5672 43.1948 27.5499 44.5792 26.6761C45.5379 26.0712 47.0145 25.1492 47.8668 24.62C49.1247 23.8363 49.3908 21.6006 49.3575 12.3167L49.3176 0.976652L26.0529 25.0324L5.81624 45.9519C4.81767 46.9839 3.93301 48.1249 3.18803 49.3493C2.43557 50.5737 1.81697 51.8797 1.34471 53.2554C-0.39884 58.3033 -0.365582 63.591 1.44448 68.5564C2.73489 72.0982 3.82658 73.3294 27.7099 98.0244L49.597 120.656C50.5947 121.681 51.6997 122.603 52.8779 123.372C54.0619 124.142 55.3332 124.789 56.6577 125.277C59.0797 126.171 61.5482 126.619 64.0243 126.605C66.4929 126.619 68.9681 126.171 71.3909 125.277C72.7146 124.789 73.9859 124.142 75.1707 123.372C76.3547 122.603 77.453 121.687 78.4516 120.656L100.339 98.0244C114.153 83.7407 120.342 77.3111 123.356 73.735C125.552 71.1281 126.065 70.0489 126.604 68.5564C128.447 63.5918 128.474 58.3033 126.73 53.2554ZM83.2091 85.57C78.2654 91.4634 71.5639 102.563 68.3096 110.258C67.158 112.982 66.0738 115.21 65.9009 115.21C65.7213 115.21 65.5816 107.625 65.5949 98.3612C65.6082 82.5378 65.7346 81.3958 67.6777 79.5322C71.7302 75.6399 69.6407 69.0445 64.297 68.8726H63.7848C58.4411 69.0445 56.3517 75.6399 60.4042 79.5322C62.3473 81.3958 62.4803 82.5446 62.487 98.3612C62.5003 107.625 62.3606 115.21 62.181 115.21C62.008 115.21 60.923 112.982 59.7714 110.258C56.518 102.563 49.8165 91.4703 44.8719 85.57C42.3235 82.5309 40.56 79.8553 40.7928 79.4016C41.0256 78.9548 42.4366 76.2998 43.9274 73.4875C47.5076 66.7409 49.3176 58.757 49.3842 49.3081C49.4108 45.0858 49.4972 41.3242 49.7034 41.3242C55.3132 41.8603 58.654 42.5408 64.031 42.7204C69.4079 42.5408 72.7487 41.8672 78.3585 41.3242C78.5647 41.3242 78.6511 45.079 78.6778 49.3081C78.7443 58.757 80.5543 66.7409 84.1346 73.4875C85.6253 76.2998 87.0421 78.9617 87.2683 79.4016C87.5219 79.8621 85.7584 82.5378 83.2091 85.57Z" fill="#863B1F"/>
</g>
</svg>
