<svg width="27" height="20" viewBox="0 0 27 20" fill="none" xmlns="http://www.w3.org/2000/svg">
<path d="M14 8L12.25 6.6L14.2188 5H9V3H14.2188L12.2188 1.4L14 0L19 4L14 8ZM7.75 20C7.0625 20 6.47396 19.8042 5.98438 19.4125C5.49479 19.0208 5.25 18.55 5.25 18C5.25 17.45 5.49479 16.9792 5.98438 16.5875C6.47396 16.1958 7.0625 16 7.75 16C8.4375 16 9.02604 16.1958 9.51562 16.5875C10.0052 16.9792 10.25 17.45 10.25 18C10.25 18.55 10.0052 19.0208 9.51562 19.4125C9.02604 19.8042 8.4375 20 7.75 20ZM20.25 20C19.5625 20 18.974 19.8042 18.4844 19.4125C17.9948 19.0208 17.75 18.55 17.75 18C17.75 17.45 17.9948 16.9792 18.4844 16.5875C18.974 16.1958 19.5625 16 20.25 16C20.9375 16 21.526 16.1958 22.0156 16.5875C22.5052 16.9792 22.75 17.45 22.75 18C22.75 18.55 22.5052 19.0208 22.0156 19.4125C21.526 19.8042 20.9375 20 20.25 20ZM0.25 2V0H4.34375L9.65625 9H18.4062L23.2812 2H26.125L20.625 9.95C20.3958 10.2833 20.0885 10.5417 19.7031 10.725C19.3177 10.9083 18.8958 11 18.4375 11H9.125L7.75 13H22.75V15H7.75C6.8125 15 6.09896 14.675 5.60938 14.025C5.11979 13.375 5.10417 12.7167 5.5625 12.05L7.25 9.6L2.75 2H0.25Z" fill="#683315"/>
</svg>
